<?xml version="1.0" standalone="no"?>
<!DOCTYPE svg PUBLIC "-//W3C//DTD SVG 20010904//EN"
 "http://www.w3.org/TR/2001/REC-SVG-20010904/DTD/svg10.dtd">
<svg version="1.0" xmlns="http://www.w3.org/2000/svg"
 width="512.000000pt" height="512.000000pt" viewBox="0 0 512.000000 512.000000"
 preserveAspectRatio="xMidYMid meet">
<metadata>
Created by potrace 1.14, written by Peter Selinger 2001-2017
</metadata>
<g transform="translate(0.000000,512.000000) scale(0.100000,-0.100000)"
fill="#000000" stroke="none">
<path d="M1681 4776 c-45 -25 -50 -49 -51 -234 0 -131 3 -180 14 -201 35 -66
137 -66 172 0 10 19 14 62 14 139 l0 110 843 0 c857 -1 845 -1 997 -35 83 -19
233 -87 330 -150 93 -61 240 -207 302 -300 62 -94 129 -231 143 -295 1 -3 7
-25 14 -50 33 -115 42 -241 28 -378 -15 -149 -83 -320 -178 -448 -44 -60 -186
-204 -200 -204 -16 0 -39 -59 -39 -98 0 -42 33 -85 87 -112 40 -21 161 -118
206 -165 128 -135 218 -315 252 -504 13 -71 14 -297 2 -346 -2 -11 -8 -40 -12
-64 -15 -93 -76 -250 -138 -356 -67 -115 -137 -199 -242 -291 -113 -98 -226
-162 -371 -209 -163 -53 -170 -54 -1131 -54 l-893 -1 0 109 c0 122 -10 155
-51 177 -52 27 -115 8 -137 -41 -16 -35 -16 -358 0 -388 29 -56 -42 -52 1032
-52 1071 0 1043 -1 1228 56 225 69 452 220 606 403 39 47 122 166 122 175 0 5
6 16 13 23 22 24 87 167 118 261 110 337 83 708 -74 997 -70 128 -222 303
-319 367 -21 14 -37 30 -36 34 2 4 24 30 49 56 197 206 310 487 312 773 2 220
-43 407 -146 604 -192 369 -532 615 -957 692 -109 20 -1873 20 -1909 0z"/>
<path d="M2432 3932 c-31 -29 -37 -44 -32 -87 3 -30 28 -65 56 -75 13 -5 208
-10 437 -11 438 -1 479 -5 556 -51 103 -61 162 -166 167 -295 6 -146 -45 -257
-151 -330 -51 -34 -184 -70 -201 -53 -5 4 -31 20 -59 35 -160 84 -376 84 -537
-3 -60 -32 -145 -111 -182 -170 -35 -56 -73 -149 -75 -188 -1 -8 -55 -12 -179
-12 -98 -1 -190 -6 -205 -11 -29 -11 -57 -57 -57 -95 0 -14 13 -40 29 -58 l29
-33 189 -3 189 -3 12 -47 c48 -183 196 -327 387 -376 81 -21 229 -15 315 13
36 11 93 39 128 62 58 38 66 40 111 34 158 -22 296 -157 317 -311 24 -176 -39
-315 -177 -392 -96 -54 -109 -55 -589 -57 -367 -1 -449 -4 -467 -15 -28 -18
-51 -74 -45 -106 5 -30 46 -71 75 -76 36 -6 878 -1 924 6 57 8 160 46 217 80
111 65 216 208 251 342 21 77 21 223 0 299 -52 194 -200 351 -383 406 -37 11
-42 16 -37 33 44 155 44 272 2 394 -18 52 -21 72 -12 72 7 0 45 17 86 37 103
51 189 140 240 246 45 96 49 113 56 227 17 287 -152 514 -434 587 -15 4 -229
8 -474 10 l-446 4 -31 -29z"/>
<path d="M329 3095 c-33 -18 -53 -64 -44 -104 3 -17 20 -59 37 -93 17 -35 45
-94 63 -133 18 -38 51 -108 73 -155 22 -47 56 -121 77 -165 150 -321 172 -360
199 -373 49 -22 96 -10 126 32 8 12 50 97 94 190 92 196 96 224 44 269 -27 23
-40 28 -71 24 -51 -7 -62 -18 -109 -111 l-40 -80 -13 30 c-7 16 -35 76 -62
134 -28 58 -67 141 -88 185 -150 319 -161 340 -189 353 -35 16 -64 15 -97 -3z"/>
<path d="M981 3096 c-29 -16 -50 -52 -51 -87 0 -15 22 -73 49 -130 27 -57 68
-144 91 -194 23 -49 75 -160 115 -245 146 -312 165 -350 190 -366 30 -20 96
-14 120 9 12 12 165 320 165 332 0 1 29 63 64 136 35 74 80 170 101 214 20 44
51 109 68 145 38 81 40 130 8 164 -52 55 -134 38 -169 -35 -43 -92 -136 -287
-167 -354 -18 -38 -56 -119 -84 -179 -28 -60 -53 -107 -55 -105 -2 2 -36 74
-76 159 -245 523 -245 523 -277 538 -34 15 -62 15 -92 -2z"/>
</g>
</svg>
