<svg width="512" height="512" viewBox="0 0 512 512" fill="none" xmlns="http://www.w3.org/2000/svg">
<path d="M131 111L79 401H134L186 111H131Z" fill="#0055FF"/>
<mask id="mask0_0_3" style="mask-type:alpha" maskUnits="userSpaceOnUse" x="143" y="116" width="183" height="280">
<path d="M323.531 191.193C316.22 232.234 310.314 272.694 302.925 314.16C300.853 325.792 296.899 336.594 291.065 346.564C285.231 356.534 277.322 365.189 267.339 372.528C257.356 379.867 245.348 385.614 231.315 389.768C217.282 393.923 201.788 396 183.318 396H143L151 352H189.336C206 352 220.226 347.949 231.024 340.748C241.822 333.547 248.304 323.865 250.551 311.252L261.556 250L270.961 194.101C272.83 183.61 270.666 175.337 264.451 169.383C258.235 163.429 250 162 237.483 162H185L193 116H243.501C275.124 116 297.927 122.855 310.597 136.564C323.266 150.273 327.577 168.483 323.531 191.193Z" fill="#0055FF"/>
</mask>
<g mask="url(#mask0_0_3)">
<path d="M266 176L235.5 335H328.5L328 396H143L193 116H328V176H266Z" fill="#0055FF"/>
</g>
<path d="M182 274H209.787L207.776 288L245.491 274L247 265H183.638L182 274Z" fill="#FF5050"/>
<path d="M186.167 250.75L185.334 255.5L184.501 260.25H247.838L248.669 255.5L249.501 250.75H186.167Z" fill="#0055FF"/>
<path d="M252 237H224.213L226.224 223L188.509 237L187 246H250.362L252 237Z" fill="#03B80A"/>
<path d="M276.432 186L252 326H297L330 271.5H332L322.5 326H367L439 186H403.667L361 273.619H358.891L374.161 186H345.97L298.985 273.619L296.853 273.624L312.141 186H276.432Z" fill="#03B80A"/>
</svg>
